<svg xmlns="http://www.w3.org/2000/svg" xmlns:xlink="http://www.w3.org/1999/xlink" data-name="Layer 1" viewBox="0 0 512 512"><defs><linearGradient id="a" x1="256" x2="256" y1="484" y2="29.996" gradientUnits="userSpaceOnUse"><stop offset=".322" stop-color="#a163f5"/><stop offset=".466" stop-color="#b074ee"/><stop offset=".752" stop-color="#d8a1dd"/><stop offset=".898" stop-color="#efbad3"/></linearGradient><linearGradient id="b" x1="178.5" x2="178.5" y1="484" y2="29.996" xlink:href="#a"/><linearGradient id="c" x1="333.5" x2="333.5" y1="484" y2="29.996" xlink:href="#a"/></defs><path fill="url(#a)" d="M359.92 276H152.08a33.5 33.5 0 1 0 0 67h207.84a33.5 33.5 0 1 0 0-67Zm0 55H152.08a21.5 21.5 0 1 1 0-43h207.84a21.5 21.5 0 1 1 0 43Z"/><rect width="23" height="23" x="167" y="298" fill="url(#b)" rx="6"/><rect width="23" height="23" x="322" y="298" fill="url(#c)" rx="6"/><path fill="url(#a)" d="M433.885 250H430v-94.359a27.8 27.8 0 0 0 22.13-27.46 28.113 28.113 0 0 0-56.225 0 27.764 27.764 0 0 0 22.1 27.46V250h-2.041a108.3 108.3 0 0 0-103.466-76H199.507a108.3 108.3 0 0 0-103.466 76H78.115C51.584 250 30 271.969 30 298.5S51.584 347 78.115 347h22.01a108.734 108.734 0 0 0 99.382 65h112.986a108.734 108.734 0 0 0 99.382-65h22.01C460.416 347 482 325.031 482 298.5S460.416 250 433.885 250ZM407.93 128.181a16.11 16.11 0 1 1 16.11 16.111 16.128 16.128 0 0 1-16.11-16.111ZM78.115 335C58.2 335 42 318.414 42 298.5S58.2 262 78.115 262h14.978A117.648 117.648 0 0 0 91 282.116v21.578A112.391 112.391 0 0 0 95.759 335ZM408 303.765A96.235 96.235 0 0 1 311.765 400h-112.53A96.235 96.235 0 0 1 103 303.765v-21.53A96.235 96.235 0 0 1 199.235 186h112.53A96.235 96.235 0 0 1 408 282.235ZM433.885 335h-17.644A112.391 112.391 0 0 0 421 303.694v-21.578A117.648 117.648 0 0 0 418.907 262h14.978C453.8 262 470 278.586 470 298.5S453.8 335 433.885 335Z"/></svg>